<?xml version="1.0" encoding="UTF-8"?>
<svg id="Camada_1" data-name="Camada 1" xmlns="http://www.w3.org/2000/svg" viewBox="0 0 1080 1080">
  <defs>
    <style>
      .cls-1 {
        fill: #fff;
      }

      .cls-2 {
        fill: #c4b4ca;
      }

      .cls-3 {
        fill: #67769a;
      }
    </style>
  </defs>
  <rect class="cls-3" width="1080" height="1080"/>
  <g>
    <g>
      <path class="cls-1" d="M408.82,543.86v-110.03h24.45v125.19l-43.16,21.52h-54.65v-24.45h48.9l24.45-12.23Z"/>
      <path class="cls-1" d="M534.13,517.09l41.57-83.25h22.62v146.7h-24.45v-88.27l-39.73,79.46-39.73-79.46v88.27h-24.45v-146.7h22.62l41.57,83.25Z"/>
      <path class="cls-1" d="M659.44,458.29v19.93l85.58,42.79v47.31l-24.45,12.23h-85.58v-24.45h85.58v-19.93l-85.58-42.79v-47.31l24.45-12.23h85.58v24.45h-85.58Z"/>
      <polygon class="cls-2" points="683.89 470.21 745.01 470.22 745.02 503.16 683.89 470.21"/>
    </g>
    <g>
      <path class="cls-1" d="M338.06,631.77h12.72v2.4h-12.72v9.28h14.88v2.4h-17.96v-25.36h17.96v2.4h-14.88v8.88Z"/>
      <path class="cls-1" d="M398.74,645.85h-3.08l-15.4-20.44v20.44h-3.08v-25.36h3.08l15.4,20.36v-20.36h3.08v25.36Z"/>
      <path class="cls-1" d="M424.66,636.44v-6.56c0-3.36.93-5.81,2.79-7.36,1.89-1.57,4.4-2.36,7.54-2.36,2.02,0,3.79.32,5.31.95,1.49.6,2.66,1.5,3.51,2.7.82,1.15,1.24,2.48,1.24,4v.16h-3.08v-.16c0-1.6-.63-2.88-1.88-3.84-1.26-.93-2.94-1.4-5.05-1.4-2.38,0-4.19.59-5.42,1.76-1.26,1.18-1.88,3.06-1.88,5.65v6.61c0,4.73,2.45,7.09,7.34,7.09,2.27,0,4-.52,5.17-1.56,1.2-1.04,1.8-2.72,1.8-5.04v-1.96h-7.08v-2.32h10.16v3.8c0,3.33-.9,5.76-2.71,7.28-1.84,1.52-4.31,2.28-7.43,2.28s-5.68-.77-7.54-2.32c-1.86-1.55-2.79-4.01-2.79-7.4Z"/>
      <path class="cls-1" d="M472.46,631.77h12.72v2.4h-12.72v9.28h14.88v2.4h-17.96v-25.36h17.96v2.4h-14.88v8.88Z"/>
      <path class="cls-1" d="M533.14,645.85h-3.08l-15.4-20.44v20.44h-3.08v-25.36h3.08l15.4,20.36v-20.36h3.08v25.36Z"/>
      <path class="cls-1" d="M577.54,645.85h-3.16v-11.76h-13.92v11.76h-3.08v-25.36h3.08v11.2h13.92v-11.2h3.16v25.36Z"/>
      <path class="cls-1" d="M606.46,639.77l-2.48,6.08h-3.32l10.8-25.36h2.6l10.8,25.36h-3.32l-2.48-6.08h-12.6ZM612.74,624.24l-5.4,13.24h10.8l-5.4-13.24Z"/>
      <path class="cls-1" d="M651.86,634.72v11.12h-3.08v-25.36h10.98c2.74,0,4.92.63,6.55,1.88,1.57,1.2,2.36,2.95,2.36,5.24,0,1.81-.56,3.32-1.68,4.52-1.14,1.2-2.7,1.97-4.67,2.32l7.03,11.4h-3.6l-6.7-11.12h-7.18ZM659.48,632.4c1.98,0,3.48-.41,4.49-1.24,1.07-.8,1.6-1.98,1.6-3.54s-.52-2.73-1.56-3.54c-1.04-.8-2.55-1.21-4.53-1.21h-7.62v9.52h7.62Z"/>
      <path class="cls-1" d="M696.62,620.48v25.36h-3.08v-25.36h3.08Z"/>
      <path class="cls-1" d="M726.3,639.77l-2.48,6.08h-3.32l10.8-25.36h2.6l10.8,25.36h-3.32l-2.48-6.08h-12.6ZM732.58,624.24l-5.4,13.24h10.8l-5.4-13.24Z"/>
    </g>
  </g>
</svg>